<svg width="100%" height="100%" viewBox="0 0 36 36" version="1.1" xmlns="http://www.w3.org/2000/svg" xmlns:xlink="http://www.w3.org/1999/xlink" xml:space="preserve" xmlns:serif="http://www.serif.com/" style="fill-rule:evenodd;clip-rule:evenodd;stroke-linejoin:round;stroke-miterlimit:2;">
    <g transform="matrix(0.138687,0,0,0.138687,2.43337,0.754004)">
        <path d="M215.663,161.274L8.826,88.545L8.826,37.64L215.663,110.38L215.663,161.274ZM198.933,197.135L137.659,235.618L137.659,180.385L169.749,180.385L169.749,166.016L137.659,154.727L137.659,143.231L198.933,164.75L198.933,197.135ZM93.608,139.243L93.608,127.743L128.832,140.125L128.832,151.629L93.608,139.243ZM23.511,114.594L23.511,103.099L84.786,124.641L84.786,136.143L23.511,114.594ZM31.834,171.565L31.834,180.385L84.786,180.385L84.786,235.618L23.511,197.133L23.513,171.565L23.511,171.565L23.511,171.561L8.826,171.565L8.826,118.781L158.942,171.565L31.834,171.565ZM128.832,188.733L93.608,188.733L93.608,180.385L128.832,180.385L128.832,188.733ZM128.832,239.188L93.608,239.188L93.608,197.557L128.832,197.557L128.832,239.188ZM23.515,9.526L84.792,9.526L84.792,17.852L52.702,17.852L52.702,32.219L84.792,43.508L84.792,55.007L23.515,33.488L23.515,9.526ZM128.839,58.996L128.839,70.493L93.616,58.11L93.616,46.606L128.839,58.996ZM198.937,83.644L198.937,95.139L137.661,73.595L137.661,62.096L198.937,83.644ZM190.616,26.672L190.616,17.852L137.659,17.843L137.659,9.526L198.937,9.526L198.933,26.672L213.622,26.672L213.622,79.454L63.506,26.672L190.616,26.672ZM221.542,103.181L207.757,98.276L207.757,93.5L219.249,89.742L219.253,89.742C221.091,89.204 222.444,87.525 222.444,85.517L222.444,22.27C222.444,19.828 220.456,17.843 218.021,17.843L207.72,17.841L207.72,5.125C207.72,2.689 205.733,0.703 203.298,0.703L133.259,0.703C130.819,0.703 128.832,2.689 128.832,5.125L128.832,17.843L93.608,17.843L93.608,5.125C93.608,2.689 91.624,0.703 89.186,0.703L19.113,0.703C16.677,0.703 14.689,2.689 14.689,5.125L14.689,23.594L3.197,27.353C1.355,27.89 0.003,29.571 0.003,31.577L0,91.621C0,93.416 1.099,95.05 2.769,95.727C2.828,95.748 14.689,99.962 14.689,99.962L14.689,104.735L3.197,108.494C1.355,109.033 0.003,110.711 0.003,112.721L0.003,175.969C0.003,178.403 1.986,180.385 4.427,180.385L14.689,180.385L14.689,199.561C14.689,201.037 15.435,202.428 16.664,203.248C16.697,203.274 86.924,247.373 86.924,247.373C87.606,247.784 88.397,248 89.194,248L133.249,248C134.044,248 134.835,247.784 135.517,247.373L205.782,203.248C207.009,202.428 207.757,201.037 207.757,199.561L207.757,175.979L221.292,171.561L221.296,171.561C223.134,171.024 224.485,169.344 224.485,167.336L224.485,107.351C224.485,105.485 223.302,103.803 221.542,103.181Z" style="fill-rule:nonzero;"/>
    </g>
  <style>
    @media (prefers-color-scheme:dark){:root{filter:invert(100%)}}
  </style>
</svg>
