<?xml version="1.0" encoding="UTF-8" standalone="no"?>
<!DOCTYPE svg PUBLIC "-//W3C//DTD SVG 1.1//EN" "http://www.w3.org/Graphics/SVG/1.1/DTD/svg11.dtd">
<svg width="100%" height="100%" viewBox="0 0 443 190" version="1.1" xmlns="http://www.w3.org/2000/svg" xmlns:xlink="http://www.w3.org/1999/xlink" xml:space="preserve" xmlns:serif="http://www.serif.com/" style="fill-rule:evenodd;clip-rule:evenodd;stroke-linejoin:round;stroke-miterlimit:2;">
    <g>
        <path d="M265.289,88.84C265.289,87.821 264.819,87.278 263.884,87.278L253.341,87.278L253.341,110.361L263.648,110.361C264.743,110.361 265.289,109.733 265.289,108.561L265.289,88.84ZM253.341,118.725L253.341,132.377L244.98,132.377L244.98,78.834L264.431,78.834C267.005,78.834 269.196,79.772 270.992,81.643C272.797,83.44 273.731,85.635 273.731,88.135L273.731,109.498C273.731,114.817 269.747,118.725 264.431,118.725L253.341,118.725Z" style="fill:white;fill-rule:nonzero;"/>
        <path d="M309.209,88.686C309.209,87.743 308.664,87.278 307.569,87.278L297.877,87.278C296.938,87.278 296.469,87.821 296.469,88.84L296.469,122.135C296.469,123.311 297.015,123.936 298.029,123.936L307.569,123.936C308.664,123.936 309.209,123.469 309.209,122.529L309.209,88.686ZM297.25,132.377C291.937,132.377 288.108,128.389 288.108,123.076L288.108,88.135C288.108,85.635 288.963,83.44 290.683,81.643C292.482,79.772 294.671,78.834 297.25,78.834L308.352,78.834C310.852,78.834 313.042,79.772 314.84,81.57C316.715,83.365 317.653,85.551 317.653,88.135L317.653,123.076C317.653,125.658 316.715,127.922 314.84,129.719C313.042,131.518 310.852,132.377 308.352,132.377L297.25,132.377Z" style="fill:white;fill-rule:nonzero;"/>
        <path d="M391.233,87.278L391.233,132.377L382.87,132.377L382.87,87.278L372.16,87.278L372.16,78.834L401.705,78.834L401.705,87.278L391.233,87.278Z" style="fill:white;fill-rule:nonzero;"/>
        <path d="M340.396,87.278L350.939,87.278C351.877,87.278 352.345,87.821 352.345,88.84L352.345,108.561C352.345,109.733 351.797,110.361 350.702,110.361L340.396,110.361L340.396,87.278ZM360.788,109.498L360.788,88.135C360.788,85.635 359.851,83.44 358.049,81.643C356.254,79.772 354.063,78.834 351.487,78.834L332.036,78.834L332.036,132.377L340.396,132.377L340.396,118.725L348.331,118.725C349.054,121.297 350.403,126.076 350.74,127.17C351.005,128.117 350.94,132.377 350.94,132.377L359.536,132.377C359.536,125.039 359.333,125.377 358.807,123.369C358.499,122.277 357.811,120.014 356.907,117.104C359.288,115.479 360.788,112.756 360.788,109.498Z" style="fill:white;fill-rule:nonzero;"/>
        <path d="M442.632,95.557L442.632,88.135C442.632,85.551 441.693,83.365 439.815,81.57C438.018,79.772 435.831,78.834 433.327,78.834L422.227,78.834C419.652,78.834 417.465,79.772 415.662,81.643C413.94,83.44 413.084,85.635 413.084,88.135L413.084,94.383C413.084,96.963 413.94,99.151 415.741,100.947C417.54,102.748 434.19,112.828 434.19,113.842L434.19,122.373C434.19,123.393 433.72,123.936 432.784,123.936L423.009,123.936C421.996,123.936 421.444,123.469 421.444,122.529L421.444,115.096L413.084,112.154L413.084,123.076C413.084,125.658 413.94,127.922 415.741,129.719C417.54,131.518 419.726,132.377 422.227,132.377L433.327,132.377C435.909,132.377 438.098,131.442 439.894,129.641C441.693,127.846 442.632,125.658 442.632,123.076L442.632,113.299C442.632,110.641 441.693,108.447 439.815,106.651C438.018,104.856 421.444,94.774 421.444,93.837L421.444,88.84C421.444,87.821 421.914,87.278 422.856,87.278L432.547,87.278C433.645,87.278 434.19,87.743 434.19,88.686L434.19,95.557L442.632,95.557Z" style="fill:white;fill-rule:nonzero;"/>
        <path d="M230.607,95.557L230.607,88.135C230.607,85.551 229.671,83.365 227.791,81.57C225.995,79.772 223.807,78.834 221.306,78.834L210.203,78.834C207.627,78.834 205.44,79.772 203.64,81.643C201.917,83.44 201.06,85.635 201.06,88.135L201.06,94.383C201.06,96.963 201.917,99.151 203.717,100.947C205.517,102.748 222.166,112.828 222.166,113.842L222.166,122.373C222.166,123.393 221.696,123.936 220.76,123.936L210.986,123.936C209.971,123.936 209.423,123.469 209.423,122.529L209.423,115.096L201.06,112.154L201.06,123.076C201.06,125.658 201.917,127.922 203.717,129.719C205.517,131.518 207.704,132.377 210.203,132.377L221.306,132.377C223.885,132.377 226.072,131.442 227.872,129.641C229.671,127.846 230.607,125.658 230.607,123.076L230.607,113.299C230.607,110.641 229.671,108.447 227.791,106.651C225.995,104.856 209.423,94.774 209.423,93.837L209.423,88.84C209.423,87.821 209.893,87.278 210.833,87.278L220.524,87.278C221.621,87.278 222.166,87.743 222.166,88.686L222.166,95.557L230.607,95.557Z" style="fill:white;fill-rule:nonzero;"/>
        <path d="M210.204,67.147C207.702,67.147 205.515,66.287 203.717,64.488C201.919,62.691 201.055,60.426 201.055,57.846L201.055,13.6L209.424,13.6L209.424,57.299C209.424,58.236 209.972,58.705 210.985,58.705L220.522,58.705C221.62,58.705 222.165,58.236 222.165,57.299L222.165,13.6L230.609,13.6L230.609,57.846C230.609,60.426 229.668,62.691 227.793,64.488C225.993,66.287 223.806,67.147 221.306,67.147L210.204,67.147Z" style="fill:white;fill-rule:nonzero;"/>
        <rect x="290.906" y="13.602" width="8.366" height="53.545" style="fill:white;fill-rule:nonzero;"/>
        <path d="M267.839,67.147L254.348,35.719L254.348,67.147L245.979,67.147L245.979,13.602L253.597,13.602L267.089,45.029L267.089,13.602L275.534,13.602L275.534,67.147L267.839,67.147Z" style="fill:white;fill-rule:nonzero;"/>
        <path d="M331.22,22.045L331.22,67.147L322.855,67.147L322.855,22.045L312.144,22.045L312.144,13.602L341.694,13.602L341.694,22.045L331.22,22.045Z" style="fill:white;fill-rule:nonzero;"/>
        <path d="M418.371,23.453C418.371,22.512 417.825,22.045 416.73,22.045L405.631,22.045L405.631,58.705L416.73,58.705C417.825,58.705 418.371,58.236 418.371,57.299L418.371,23.453ZM397.264,67.147L397.264,13.602L417.514,13.602C420.009,13.602 422.2,14.539 424.001,16.338C425.878,18.133 426.815,20.32 426.815,22.902L426.815,57.846C426.815,60.426 425.878,62.691 424.001,64.488C422.2,66.287 420.009,67.147 417.514,67.147L397.264,67.147Z" style="fill:white;fill-rule:nonzero;"/>
        <path d="M362.934,36.19L362.934,22.045L382.894,22.045L382.894,13.602L354.563,13.602L354.563,67.147L382.894,67.147L382.894,58.701L362.934,58.701L362.934,44.559L378.789,44.559L378.789,36.19L362.934,36.19Z" style="fill:white;fill-rule:nonzero;"/>
        <path d="M274.855,152.856L271.816,162.57L277.904,162.57L274.855,152.856ZM280.193,173.162C280.193,173.162 280.232,170.637 280.074,170.076C279.639,168.658 279.402,167.787 279.402,167.787L270.236,167.787C270.236,167.787 270.04,168.498 269.644,170.043C269.486,170.594 269.525,173.162 269.525,173.162L264.43,173.162C264.43,168.779 264.509,169.014 264.862,167.822L272.328,144.043L277.388,144.043C277.388,144.043 283.947,164.586 284.855,167.822C285.169,169.014 285.289,168.813 285.289,173.162L280.193,173.162Z" style="fill:white;fill-rule:nonzero;"/>
        <path d="M311.845,173.162L301.295,154.432L301.295,173.162L296,173.162L296,144.043L301.141,144.043L311.567,162.297L311.567,144.043L316.901,144.043L316.901,173.162L311.845,173.162Z" style="fill:white;fill-rule:nonzero;"/>
        <path d="M217.129,153.75C217.129,154.971 216.141,155.957 214.916,155.957L206.855,155.957L206.855,149.34L214.916,149.34C216.141,149.34 217.129,150.326 217.129,151.547L217.129,153.75ZM217.129,165.658C217.129,166.879 216.141,167.865 214.916,167.865L206.855,167.865L206.855,161.25L214.916,161.25C216.141,161.25 217.129,162.236 217.129,163.457L217.129,165.658ZM222.461,151.83C222.461,147.518 218.945,144.043 214.68,144.043L201.561,144.043L201.561,173.162L214.68,173.162C218.945,173.162 222.461,169.684 222.461,165.377L222.461,163.699C222.461,161.762 221.715,159.947 220.525,158.604C221.715,157.26 222.461,155.445 222.461,153.508L222.461,151.83Z" style="fill:white;fill-rule:nonzero;"/>
        <path d="M239.297,160.375L239.297,149.34L247.357,149.34C248.582,149.34 249.567,150.326 249.567,151.547L249.567,158.16C249.567,159.389 248.582,160.375 247.357,160.375L239.297,160.375ZM254.904,157.924L254.904,151.83C254.904,147.518 251.385,144.043 247.12,144.043L234.002,144.043L234.002,173.162L239.297,173.162L239.297,165.707L243.856,165.707L243.882,165.709C243.896,165.733 247.2,170.82 248.651,173.162L254.831,173.162C254.69,172.977 249.851,165.125 249.847,165.117L249.847,165.115C252.571,164.326 254.904,161.442 254.904,157.924Z" style="fill:white;fill-rule:nonzero;"/>
        <path d="M345.19,151.547C345.19,150.326 344.204,149.34 342.981,149.34L334.919,149.34L334.919,167.867L342.981,167.867C344.204,167.867 345.19,166.881 345.19,165.652L345.19,151.547ZM342.743,173.162L329.626,173.162L329.626,144.043L342.743,144.043C347.009,144.043 350.524,147.518 350.524,151.83L350.524,165.377C350.524,169.684 347.009,173.162 342.743,173.162Z" style="fill:white;fill-rule:nonzero;"/>
        <path d="M374.671,167.867C375.853,167.867 376.841,166.881 376.841,165.652C376.841,165.652 376.841,166.01 376.841,164.192C376.841,163.283 376.292,162.494 375.46,162.254L366.253,159.727C363.37,158.94 361.356,156.053 361.356,152.856L361.356,151.471C361.356,147.162 364.479,144.043 368.784,144.043L373.767,144.043C377.366,144.043 381.56,146.762 381.56,152.235L376.261,152.235C376.261,149.424 374.022,149.34 373.767,149.34L368.864,149.34C367.636,149.34 366.649,150.326 366.649,151.547C366.649,151.547 366.649,150.762 366.649,152.576C366.649,153.961 367.438,154.828 368.821,155.182C370.126,155.5 376.489,157.123 376.489,157.123C379.688,157.91 382.06,160.713 382.06,164.192L382.06,165.264C382.06,169.647 378.778,173.162 374.394,173.162L369.399,173.162C365.798,173.162 361.606,170.445 361.606,164.971L366.905,164.971C366.905,167.781 369.144,167.867 369.399,167.867L374.671,167.867Z" style="fill:white;fill-rule:nonzero;"/>
        <path d="M165.637,123.395L6.778,67.535L6.778,28.438L165.637,84.303L165.637,123.395ZM152.786,150.936L105.727,180.492L105.727,138.07L130.371,138.07L130.371,127.033L105.727,118.365L105.727,109.535L152.786,126.061L152.786,150.936ZM71.895,106.473L71.895,97.637L98.948,107.149L98.948,115.985L71.895,106.473ZM18.058,87.542L18.058,78.715L65.119,95.256L65.119,104.09L18.058,87.542ZM24.449,131.297L24.449,138.07L65.119,138.07L65.119,180.492L18.058,150.934L18.058,131.295L6.778,131.297L6.778,90.756L122.072,131.297L24.449,131.297ZM98.948,144.483L71.895,144.483L71.895,138.07L98.948,138.07L98.948,144.483ZM98.948,183.235L71.895,183.235L71.895,151.262L98.948,151.262L98.948,183.235ZM18.061,6.844L65.122,6.844L65.122,13.24L40.476,13.24L40.476,24.274L65.122,32.945L65.122,41.775L18.061,25.248L18.061,6.844ZM98.954,44.84L98.954,53.67L71.9,44.158L71.9,35.322L98.954,44.84ZM152.791,63.77L152.791,72.598L105.729,56.051L105.729,47.219L152.791,63.77ZM146.399,20.014L146.399,13.24L105.727,13.233L105.727,6.844L152.791,6.844L152.786,20.014L164.068,20.014L164.068,60.551L48.776,20.014L146.399,20.014ZM170.152,78.775L159.565,75.006L159.565,71.342L168.39,68.451L168.394,68.451C169.808,68.039 170.845,66.752 170.845,65.207L170.845,16.631C170.845,14.756 169.319,13.233 167.447,13.233L159.534,13.231L159.534,3.465C159.534,1.592 158.01,0.068 156.139,0.068L102.347,0.068C100.474,0.068 98.948,1.592 98.948,3.465L98.948,13.233L71.895,13.233L71.895,3.465C71.895,1.592 70.371,0.068 68.498,0.068L14.679,0.068C12.808,0.068 11.282,1.592 11.282,3.465L11.282,17.65L2.454,20.535C1.041,20.947 0.002,22.24 0.002,23.779L0,69.897C0,71.277 0.845,72.529 2.125,73.051C2.172,73.066 11.282,76.303 11.282,76.303L11.282,79.969L2.454,82.854C1.041,83.27 0.002,84.559 0.002,86.102L0.002,134.678C0.002,136.549 1.526,138.07 3.4,138.07L11.282,138.07L11.282,152.799C11.282,153.932 11.854,155 12.797,155.631C12.824,155.651 66.761,189.52 66.761,189.52C67.285,189.834 67.893,190 68.502,190L102.341,190C102.95,190 103.559,189.834 104.082,189.52L158.048,155.631C158.989,155 159.565,153.932 159.565,152.799L159.565,134.688L169.959,131.295L169.963,131.295C171.374,130.881 172.414,129.59 172.414,128.049L172.414,81.979C172.414,80.545 171.506,79.254 170.152,78.775Z" style="fill:white;fill-rule:nonzero;"/>
    </g>
</svg>
